<svg width="1440" height="3570" viewBox="0 0 1440 3570" fill="none" xmlns="http://www.w3.org/2000/svg">
<path d="M1439.5 892.5V1189.5H880.5V892.5H1439.5ZM879.5 892.5V1189.5H211.5V892.5H879.5ZM210.5 892.5V1189.5H0.5V892.5H210.5ZM1439.5 595.5V891.5H1208.5V595.5H1439.5ZM1207.5 596.5V891.5H540.5V596.5H1207.5ZM539.5 596.5V891.5H0.5V596.5H539.5ZM923.5 298.5V595.5H256.5V298.5H923.5ZM255.5 298.5V595.5H0.5V298.5H255.5ZM1439.5 298.5V594.5H924.858V298.5H1439.5ZM1439.5 0.5V297.5H1249.63V0.5H1439.5ZM1248.63 0.5V297.5H581.097V0.5H1248.63ZM580.097 0.5V297.5H0.5V0.5H580.097Z" fill="white" stroke="#F27100"/>
<path d="M1439.5 2082.5V2379.5H880.5V2082.5H1439.5ZM879.5 2082.5V2379.5H211.5V2082.5H879.5ZM210.5 2082.5V2379.5H0.5V2082.5H210.5ZM1439.5 1785.5V2081.5H1208.5V1785.5H1439.5ZM1207.5 1786.5V2081.5H540.5V1786.5H1207.5ZM539.5 1786.5V2081.5H0.5V1786.5H539.5ZM923.5 1488.5V1785.5H256.5V1488.5H923.5ZM255.5 1488.5V1785.5H0.5V1488.5H255.5ZM1439.5 1488.5V1784.5H924.858V1488.5H1439.5ZM1439.5 1190.5V1487.5H1249.63V1190.5H1439.5ZM1248.63 1190.5V1487.5H581.097V1190.5H1248.63ZM580.097 1190.5V1487.5H0.5V1190.5H580.097Z" fill="white" stroke="#F27100"/>
<path d="M1439.5 3272.5V3569.5H880.5V3272.5H1439.5ZM879.5 3272.5V3569.5H211.5V3272.5H879.5ZM210.5 3272.5V3569.5H0.5V3272.5H210.5ZM1439.5 2975.5V3271.5H1208.5V2975.5H1439.5ZM1207.5 2976.5V3271.5H540.5V2976.5H1207.5ZM539.5 2976.5V3271.5H0.5V2976.5H539.5ZM923.5 2678.5V2975.5H256.5V2678.5H923.5ZM255.5 2678.5V2975.5H0.5V2678.5H255.5ZM1439.5 2678.5V2974.5H924.858V2678.5H1439.5ZM1439.5 2380.5V2677.5H1249.63V2380.5H1439.5ZM1248.63 2380.5V2677.5H581.097V2380.5H1248.63ZM580.097 2380.5V2677.5H0.5V2380.5H580.097Z" fill="white" stroke="#F27100"/>
</svg>
