<svg width="125" height="81" viewBox="0 0 125 81" fill="none" xmlns="http://www.w3.org/2000/svg">
<mask id="path-1-inside-1_2113_371" fill="white">
<rect x="61" width="64" height="81" rx="2"/>
</mask>
<rect x="61" width="64" height="81" rx="2" fill="#F27100" stroke="white" stroke-width="6" mask="url(#path-1-inside-1_2113_371)"/>
<mask id="path-2-inside-2_2113_371" fill="white">
<rect width="64" height="81" rx="2"/>
</mask>
<rect width="64" height="81" rx="2" fill="#F27100" stroke="white" stroke-width="6" mask="url(#path-2-inside-2_2113_371)"/>
<rect width="21" height="8" transform="matrix(-1 0 0 1 51 36)" fill="white"/>
<path d="M30 26L12 40L30 54V26Z" fill="white"/>
<path d="M76.6642 31.6276C77.3445 31.8634 77.8261 32.1839 78.109 32.5889C78.3952 32.9845 78.5416 33.4322 78.5483 33.9319C78.5644 34.435 78.498 34.9623 78.3491 35.514C78.2001 36.0656 78.0307 36.6154 77.8407 37.1634C77.6278 37.7776 77.3947 38.3583 77.1414 38.9055C76.8915 39.4433 76.5809 39.8965 76.2096 40.2653C75.8416 40.6245 75.3725 40.8482 74.8021 40.9362C74.2446 41.0181 73.547 40.9085 72.7093 40.6076C72.2497 40.4376 71.8841 40.1944 71.6128 39.8781C71.3542 39.5556 71.167 39.2102 71.0512 38.842C70.9959 38.971 70.939 39.1047 70.8804 39.2431C70.8218 39.3816 70.7585 39.5184 70.6905 39.6536L66.8639 38.3269C67.0065 38.0376 67.1397 37.7451 67.2634 37.4493C67.3871 37.1535 67.4998 36.8592 67.6013 36.5663L70.8712 26.952L75.0804 28.4113L74.2303 30.8631L73.3952 32.8597L73.5227 32.904C73.7615 32.2459 74.1384 31.7997 74.6536 31.5655C75.1814 31.3252 75.8516 31.3459 76.6642 31.6276ZM73.3491 36.7016L74.0125 34.7884C74.0223 34.76 74.028 34.6826 74.0295 34.5561C74.0405 34.4329 73.9515 34.3385 73.7625 34.273C73.5735 34.2075 73.4405 34.2249 73.3634 34.3252C73.2957 34.4287 73.257 34.4947 73.2472 34.523L72.5838 36.4363C72.5707 36.4741 72.5587 36.5546 72.5477 36.6778C72.5495 36.7948 72.6449 36.8861 72.8338 36.9516C73.0228 37.0171 73.1495 37.0028 73.2138 36.9087C73.2909 36.8084 73.336 36.7394 73.3491 36.7016ZM85.4163 44.7591L81.7882 43.5012C81.8126 43.3086 81.8434 43.1129 81.8806 42.9141C81.9305 42.7091 82.003 42.4697 82.098 42.1957L81.9704 42.1514C81.9016 42.3499 81.7554 42.5426 81.5318 42.7297C81.3209 42.9106 81.0348 43.0336 80.6735 43.0989C80.3155 43.1547 79.8813 43.0941 79.3711 42.9172C78.672 42.6748 78.1602 42.3651 77.8358 41.988C77.5114 41.611 77.3281 41.2087 77.2858 40.7813C77.2467 40.3444 77.3026 39.9086 77.4532 39.474L77.6891 38.7937C78.0036 37.8867 78.5163 37.3236 79.2273 37.1044C79.9384 36.8852 80.9694 37.0099 82.3205 37.4783C82.5095 37.5438 82.6968 37.6141 82.8825 37.689C83.0777 37.7673 83.2806 37.8535 83.4914 37.9477C83.5659 37.7937 83.5785 37.6657 83.5292 37.5639C83.4892 37.4654 83.4189 37.3934 83.3183 37.3479C83.1453 37.2668 82.9754 37.192 82.8087 37.1236C82.6546 37.049 82.4972 36.9839 82.3366 36.9282C81.5808 36.6662 80.9119 36.5348 80.33 36.5341C79.7575 36.5368 79.2954 36.5723 78.9435 36.6409L79.7498 33.4912C80.6664 33.5338 81.5034 33.6229 82.2608 33.7585C83.0276 33.8973 83.7133 34.0716 84.318 34.2812C85.6219 34.7333 86.5364 35.3467 87.0616 36.1215C87.5995 36.8901 87.6948 37.7752 87.3476 38.7767L85.8588 43.0709C85.6938 43.6382 85.5463 44.2009 85.4163 44.7591ZM82.2301 40.6698L82.5397 39.7769C82.5528 39.7391 82.5584 39.6617 82.5567 39.5447C82.5676 39.4215 82.4786 39.3271 82.2897 39.2616C82.1007 39.1961 81.9677 39.2134 81.8906 39.3137C81.8262 39.4078 81.7875 39.4738 81.7744 39.5116L81.4648 40.4044C81.455 40.4328 81.4446 40.5085 81.4336 40.6317C81.4321 40.7582 81.5258 40.8542 81.7148 40.9197C81.9037 40.9853 82.0321 40.9662 82.0997 40.8627C82.1768 40.7624 82.2203 40.6981 82.2301 40.6698ZM92.1203 42.3048L95.9958 43.9024L95.6272 44.9654C95.28 45.9669 94.616 46.6151 93.6353 46.9101C92.6578 47.1957 91.4652 47.0944 90.0574 46.6063C89.2732 46.3345 88.6024 45.9643 88.0451 45.4959C87.4878 45.0275 87.0926 44.4883 86.8596 43.8783C86.636 43.2716 86.6216 42.6263 86.8164 41.9423C86.8528 41.8068 86.9121 41.6051 86.9944 41.3373C87.0894 41.0633 87.1975 40.7515 87.3187 40.4019C87.4366 40.0617 87.5398 39.7641 87.6283 39.509C87.7294 39.2477 87.806 39.0573 87.8581 38.9378C88.1219 38.299 88.5261 37.8199 89.0707 37.5007C89.628 37.1754 90.2689 37.0059 90.9933 36.9925C91.7177 36.979 92.4719 37.1082 93.2561 37.3801C94.1726 37.6979 94.9206 38.0895 95.5001 38.555C96.089 39.0238 96.4844 39.5472 96.6862 40.1252C96.9007 40.697 96.8982 41.2994 96.6788 41.9325L96.3938 42.7545L92.2873 41.8229L92.4642 41.3127C92.5527 41.0576 92.4694 40.8858 92.2143 40.7974C91.9591 40.7089 91.7874 40.7923 91.6989 41.0474L91.1486 42.6347C91.0602 42.8898 91.1435 43.0615 91.3986 43.15C91.6537 43.2384 91.8255 43.1551 91.9139 42.9L92.1203 42.3048ZM99.2336 49.5497L95.152 48.1345L99.1025 36.7399L103.312 38.1993L101.936 42.1676L101.214 43.8382L101.341 43.8824L103.159 41.0674L107.382 42.5317L104.128 46.0553L104.506 51.3775L100.07 49.8396L100.531 46.1734L100.404 46.1292L99.9073 47.5606L99.2336 49.5497ZM110.27 49.1053L106.585 47.8277C106.66 47.5788 106.761 47.2116 106.887 46.726C107.017 46.2311 107.161 45.6778 107.32 45.0662C107.488 44.4578 107.66 43.84 107.835 43.2128C108.023 42.5794 108.201 41.9901 108.369 41.445C108.537 40.8999 108.684 40.4589 108.812 40.1221L108.831 40.1128L113.281 41.6557L113.262 41.665C113.163 42.0117 113.011 42.451 112.805 42.983C112.599 43.515 112.37 44.0862 112.116 44.6967C111.874 45.301 111.63 45.899 111.382 46.4906C111.138 47.0727 110.915 47.5934 110.714 48.0527C110.522 48.5153 110.374 48.8662 110.27 49.1053ZM109.695 50.7634L109.302 51.8972C109.177 52.2562 108.924 52.5125 108.543 52.6661C108.161 52.8196 107.65 52.785 107.007 52.5623C106.374 52.3428 105.952 52.0484 105.742 51.679C105.531 51.3096 105.488 50.9454 105.612 50.5864L106.001 49.4668C106.125 49.1078 106.384 48.8484 106.778 48.6886C107.172 48.5289 107.686 48.5588 108.319 48.7783C108.962 49.001 109.385 49.2907 109.589 49.6474C109.794 50.004 109.829 50.376 109.695 50.7634ZM115.238 50.8279L111.553 49.5504C111.629 49.3014 111.73 48.9342 111.856 48.4487C111.985 47.9537 112.129 47.4004 112.289 46.7888C112.457 46.1805 112.629 45.5627 112.804 44.9355C112.992 44.302 113.17 43.7128 113.338 43.1677C113.505 42.6226 113.653 42.1816 113.78 41.8447L113.8 41.8355L118.25 43.3784L118.231 43.3876C118.132 43.7343 117.979 44.1737 117.774 44.7057C117.568 45.2377 117.338 45.8089 117.084 46.4194C116.843 47.0237 116.599 47.6216 116.351 48.2132C116.107 48.7953 115.884 49.3161 115.682 49.7754C115.49 50.238 115.342 50.5888 115.238 50.8279ZM114.663 52.4861L114.27 53.6199C114.146 53.9789 113.893 54.2352 113.511 54.3888C113.13 54.5423 112.618 54.5077 111.976 54.285C111.343 54.0655 110.921 53.7711 110.71 53.4017C110.5 53.0323 110.457 52.6681 110.581 52.3091L110.969 51.1894C111.094 50.8304 111.353 50.571 111.747 50.4113C112.141 50.2516 112.655 50.2815 113.288 50.5009C113.93 50.7237 114.354 51.0134 114.558 51.37C114.763 51.7267 114.798 52.0987 114.663 52.4861Z" fill="white"/>
</svg>
