<svg width="210" height="69" viewBox="0 0 210 69" fill="none" xmlns="http://www.w3.org/2000/svg">
<rect width="210" height="69" fill="#FF932F"/>
<path d="M77.46 49.05C75.4 49.05 73.81 48.5 72.69 47.4C71.59 46.3 71.03 44.73 71.01 42.69C71.01 41.85 71.07 40.73 71.19 39.33C69.91 39.19 68.68 39.02 67.5 38.82C66.32 38.62 65.37 38.39 64.65 38.13L64.98 36.3C65.62 36.56 66.52 36.8 67.68 37.02C68.84 37.24 70.06 37.41 71.34 37.53C71.42 36.67 71.5 35.77 71.58 34.83C71.68 33.89 71.78 32.96 71.88 32.04C70.78 31.88 69.72 31.71 68.7 31.53C67.68 31.35 66.91 31.19 66.39 31.05L66.69 29.19C67.15 29.35 67.88 29.53 68.88 29.73C69.88 29.91 70.94 30.08 72.06 30.24C72.22 28.94 72.35 27.74 72.45 26.64C72.57 25.54 72.66 24.68 72.72 24.06L74.76 24.39C74.64 25.05 74.5 25.92 74.34 27C74.2 28.06 74.05 29.22 73.89 30.48C74.65 30.56 75.34 30.63 75.96 30.69C76.58 30.73 77.08 30.74 77.46 30.72L77.19 32.58C76.83 32.58 76.34 32.55 75.72 32.49C75.1 32.43 74.43 32.36 73.71 32.28C73.61 33.2 73.51 34.12 73.41 35.04C73.33 35.94 73.25 36.83 73.17 37.71C74.05 37.77 74.87 37.8 75.63 37.8C76.41 37.8 77.05 37.78 77.55 37.74L77.4 39.63C76.84 39.65 76.18 39.65 75.42 39.63C74.66 39.61 73.87 39.57 73.05 39.51C73.03 40.13 73 40.71 72.96 41.25C72.94 41.77 72.93 42.23 72.93 42.63C72.95 44.13 73.31 45.26 74.01 46.02C74.73 46.76 75.88 47.13 77.46 47.13C78.98 47.13 80.17 46.74 81.03 45.96C81.89 45.18 82.32 44.09 82.32 42.69C82.32 41.51 81.97 40.33 81.27 39.15C80.57 37.97 79.55 36.96 78.21 36.12C78.49 36.04 78.79 35.92 79.11 35.76C79.45 35.58 79.7 35.42 79.86 35.28C81.34 36.3 82.44 37.47 83.16 38.79C83.9 40.11 84.27 41.42 84.27 42.72C84.27 43.98 83.99 45.09 83.43 46.05C82.89 46.99 82.11 47.72 81.09 48.24C80.07 48.78 78.86 49.05 77.46 49.05ZM113.1 47.43C111.4 47.73 109.73 47.94 108.09 48.06C106.45 48.2 104.92 48.21 103.5 48.09C102.1 47.99 100.86 47.74 99.78 47.34C98.72 46.92 97.88 46.32 97.26 45.54C96.66 44.76 96.36 43.77 96.36 42.57C96.36 41.57 96.65 40.66 97.23 39.84C97.83 39 98.65 38.23 99.69 37.53C100.75 36.83 101.96 36.19 103.32 35.61C102.72 34.45 102.31 32.98 102.09 31.2C101.87 29.4 101.77 27.11 101.79 24.33H103.95C103.81 25.59 103.76 26.89 103.8 28.23C103.84 29.57 103.96 30.83 104.16 32.01C104.38 33.19 104.67 34.17 105.03 34.95C106.03 34.59 107.06 34.25 108.12 33.93C109.2 33.61 110.29 33.32 111.39 33.06L111.93 35.07C110.07 35.35 108.32 35.75 106.68 36.27C105.04 36.79 103.59 37.39 102.33 38.07C101.09 38.73 100.11 39.44 99.39 40.2C98.67 40.96 98.31 41.73 98.31 42.51C98.31 43.57 98.72 44.4 99.54 45C100.36 45.58 101.48 45.97 102.9 46.17C104.32 46.35 105.93 46.36 107.73 46.2C109.55 46.04 111.46 45.74 113.46 45.3C113.36 45.58 113.27 45.94 113.19 46.38C113.13 46.8 113.1 47.15 113.1 47.43ZM114.15 32.85C113.87 32.45 113.5 32.01 113.04 31.53C112.6 31.05 112.14 30.59 111.66 30.15C111.18 29.69 110.74 29.33 110.34 29.07L111.33 28.17C111.69 28.43 112.12 28.8 112.62 29.28C113.12 29.74 113.61 30.22 114.09 30.72C114.57 31.2 114.94 31.61 115.2 31.95L114.15 32.85ZM116.43 30.6C116.15 30.2 115.77 29.77 115.29 29.31C114.83 28.85 114.35 28.41 113.85 27.99C113.37 27.55 112.93 27.2 112.53 26.94L113.49 26.01C113.85 26.25 114.29 26.6 114.81 27.06C115.33 27.52 115.83 27.99 116.31 28.47C116.81 28.95 117.19 29.35 117.45 29.67L116.43 30.6ZM135.81 48.09C133.79 48.09 132.3 47.73 131.34 47.01C130.38 46.27 129.9 45.36 129.9 44.28C129.9 43.6 130.07 43.03 130.41 42.57C130.75 42.09 131.19 41.73 131.73 41.49C132.27 41.23 132.84 41.1 133.44 41.1C134.6 41.1 135.57 41.55 136.35 42.45C137.15 43.35 137.59 44.53 137.67 45.99C138.83 45.71 139.83 45.14 140.67 44.28C141.51 43.42 141.93 42.29 141.93 40.89C141.93 39.89 141.7 39.02 141.24 38.28C140.8 37.54 140.18 36.97 139.38 36.57C138.6 36.15 137.7 35.94 136.68 35.94C135.36 35.94 134.11 36.15 132.93 36.57C131.77 36.97 130.7 37.59 129.72 38.43C129.38 38.73 128.9 39.13 128.28 39.63C127.66 40.13 127.11 40.56 126.63 40.92L125.34 39.51C126.34 38.91 127.4 38.14 128.52 37.2C129.64 36.24 130.76 35.19 131.88 34.05C133 32.91 134.05 31.74 135.03 30.54C136.01 29.34 136.84 28.18 137.52 27.06C136.92 27.2 136.21 27.35 135.39 27.51C134.59 27.67 133.75 27.82 132.87 27.96C131.99 28.08 131.15 28.19 130.35 28.29C129.55 28.39 128.85 28.46 128.25 28.5L127.92 26.64C128.46 26.66 129.13 26.64 129.93 26.58C130.73 26.52 131.58 26.44 132.48 26.34C133.38 26.24 134.25 26.12 135.09 25.98C135.95 25.84 136.71 25.69 137.37 25.53C138.03 25.37 138.52 25.22 138.84 25.08L140.25 26.07C139.79 27.01 139.17 28.01 138.39 29.07C137.63 30.13 136.79 31.2 135.87 32.28C134.95 33.34 134 34.36 133.02 35.34C133.6 35.06 134.24 34.83 134.94 34.65C135.66 34.45 136.33 34.35 136.95 34.35C138.29 34.35 139.48 34.63 140.52 35.19C141.58 35.73 142.41 36.49 143.01 37.47C143.61 38.45 143.91 39.59 143.91 40.89C143.91 42.29 143.56 43.53 142.86 44.61C142.16 45.69 141.2 46.54 139.98 47.16C138.76 47.78 137.37 48.09 135.81 48.09ZM135.54 46.29H135.9C135.88 45.25 135.64 44.41 135.18 43.77C134.72 43.13 134.14 42.81 133.44 42.81C132.94 42.81 132.52 42.94 132.18 43.2C131.86 43.44 131.7 43.79 131.7 44.25C131.7 44.81 131.99 45.29 132.57 45.69C133.17 46.07 134.16 46.27 135.54 46.29Z" fill="white"/>
</svg>
