<svg width="125" height="81" viewBox="0 0 125 81" fill="none" xmlns="http://www.w3.org/2000/svg">
<mask id="path-1-inside-1_2089_328" fill="white">
<rect x="61" width="64" height="81" rx="2"/>
</mask>
<rect x="61" width="64" height="81" rx="2" fill="#F27100" stroke="white" stroke-width="6" mask="url(#path-1-inside-1_2089_328)"/>
<mask id="path-2-inside-2_2089_328" fill="white">
<rect width="64" height="81" rx="2"/>
</mask>
<rect width="64" height="81" rx="2" fill="#F27100" stroke="white" stroke-width="6" mask="url(#path-2-inside-2_2089_328)"/>
<rect x="75" y="38" width="21" height="8" fill="white"/>
<path d="M96 28L114 42L96 56V28Z" fill="white"/>
<path d="M12.1215 47.61L16.2481 46.873L16.5089 47.9674C16.7547 48.9985 16.5435 49.9021 15.8752 50.6782C15.2046 51.4446 14.1447 52.0005 12.6953 52.346C11.8879 52.5384 11.1233 52.5871 10.4016 52.4918C9.67981 52.3966 9.05669 52.1545 8.5322 51.7655C8.01743 51.3742 7.65828 50.8378 7.45474 50.1564C7.41255 50.0226 7.35413 49.8206 7.27948 49.5506C7.21224 49.2685 7.13572 48.9475 7.04993 48.5876C6.96645 48.2374 6.89341 47.931 6.83081 47.6683C6.77561 47.3936 6.7378 47.1919 6.71739 47.0631C6.59631 46.3826 6.67953 45.7614 6.96706 45.1994C7.26199 44.6254 7.71121 44.138 8.31471 43.7371C8.91821 43.3362 9.62365 43.0396 10.431 42.8471C11.3746 42.6222 12.2158 42.5502 12.9547 42.6311C13.7033 42.7096 14.3181 42.9383 14.799 43.3171C15.2874 43.6839 15.6093 44.1931 15.7646 44.8449L15.9663 45.6911L12.0032 47.1139L11.878 46.5886C11.8154 46.3259 11.6528 46.2259 11.3901 46.2885C11.1275 46.3511 11.0275 46.5138 11.0901 46.7764L11.4796 48.4106C11.5422 48.6732 11.7049 48.7733 11.9675 48.7107C12.2301 48.6481 12.3302 48.4854 12.2675 48.2228L12.1215 47.61ZM22.1946 47.0901L23.0367 49.5879C22.7514 49.7279 22.403 49.8623 21.9917 49.9912C21.5924 50.1275 21.208 50.2397 20.8383 50.3278C20.2352 50.4716 19.6819 50.5007 19.1783 50.4151C18.6822 50.3175 18.2439 50.0313 17.8634 49.5566C17.4927 49.0796 17.1868 48.3352 16.9456 47.3236L15.0014 39.1671L19.2036 38.1654L21.2314 46.6721C21.2963 46.9444 21.4122 47.107 21.5789 47.1598C21.7554 47.2102 21.9607 47.187 22.1946 47.0901ZM21.219 40.106L20.6729 37.8152L24.8752 36.8135L25.4212 39.1043L21.219 40.106ZM27.6716 48.5448L23.4693 49.5465L21.3129 40.4999L25.5151 39.4983L27.6716 48.5448ZM32.1986 42.8242L36.3252 42.0873L36.5861 43.1816C36.8318 44.2127 36.6206 45.1163 35.9524 45.8924C35.2818 46.6588 34.2218 47.2147 32.7724 47.5602C31.965 47.7527 31.2005 47.8013 30.4787 47.706C29.7569 47.6108 29.1338 47.3687 28.6093 46.9797C28.0946 46.5884 27.7354 46.0521 27.5319 45.3707C27.4897 45.2368 27.4313 45.0349 27.3566 44.7648C27.2894 44.4827 27.2129 44.1617 27.1271 43.8018C27.0436 43.4516 26.9706 43.1452 26.9079 42.8825C26.8527 42.6079 26.8149 42.4061 26.7945 42.2773C26.6734 41.5969 26.7567 40.9756 27.0442 40.4137C27.3391 39.8396 27.7883 39.3522 28.3918 38.9513C28.9953 38.5505 29.7008 38.2538 30.5082 38.0614C31.4517 37.8364 32.293 37.7644 33.0318 37.8453C33.7805 37.9238 34.3952 38.1525 34.8762 38.5313C35.3645 38.8981 35.6864 39.4073 35.8417 40.0591L36.0435 40.9054L32.0804 42.3281L31.9551 41.8028C31.8925 41.5402 31.7299 41.4401 31.4673 41.5028C31.2046 41.5654 31.1046 41.728 31.1672 41.9906L31.5568 43.6248C31.6194 43.8875 31.782 43.9875 32.0446 43.9249C32.3073 43.8623 32.4073 43.6997 32.3447 43.437L32.1986 42.8242ZM42.0918 45.1075L37.8895 46.1092L35.0931 34.3778L39.4267 33.3448L40.4006 37.4304L40.6901 39.2272L40.8214 39.1959L40.84 35.8453L45.1882 34.8088L44.3396 39.5292L47.5197 43.8136L42.9526 44.9023L41.3703 41.5632L41.239 41.5945L41.5902 43.0682L42.0918 45.1075ZM51.1574 38.7984L47.3637 39.7028C47.2937 39.4522 47.1812 39.0883 47.0264 38.6112C46.8692 38.1244 46.6933 37.5804 46.4986 36.9791C46.3136 36.3756 46.1263 35.7623 45.9366 35.1393C45.7544 34.5042 45.5875 33.9118 45.4359 33.3619C45.2843 32.8121 45.1716 32.361 45.0978 32.0084L45.1089 31.9904L49.6906 30.8983L49.6795 30.9163C49.7824 31.2619 49.8902 31.7142 50.0029 32.2733C50.1156 32.8324 50.2291 33.4376 50.3432 34.0889C50.4647 34.7281 50.5802 35.3637 50.6897 35.9955C50.7969 36.6176 50.889 37.1765 50.966 37.6721C51.0528 38.1655 51.1166 38.5409 51.1574 38.7984ZM51.5643 40.5056L51.8426 41.6729C51.9307 42.0426 51.8553 42.3946 51.6163 42.7292C51.3774 43.0637 50.9272 43.3098 50.2657 43.4675C49.614 43.6228 49.1 43.6014 48.7238 43.4032C48.3476 43.2051 48.1154 42.9212 48.0273 42.5515L47.7526 41.3988C47.6644 41.0292 47.7436 40.6711 47.9899 40.3245C48.2363 39.9779 48.6853 39.727 49.3371 39.5716C49.9985 39.4139 50.5113 39.4305 50.8755 39.6212C51.2397 39.812 51.4693 40.1068 51.5643 40.5056ZM56.2729 37.5791L52.4792 38.4834C52.4091 38.2328 52.2967 37.8689 52.1419 37.3918C51.9847 36.905 51.8088 36.361 51.614 35.7598C51.429 35.1562 51.2417 34.5429 51.0521 33.9199C50.8699 33.2848 50.703 32.6924 50.5514 32.1426C50.3997 31.5927 50.287 31.1416 50.2133 30.7891L50.2244 30.771L54.806 29.6789L54.7949 29.697C54.8979 30.0425 55.0057 30.4948 55.1184 31.0539C55.2311 31.613 55.3445 32.2182 55.4587 32.8695C55.5802 33.5088 55.6957 34.1443 55.8052 34.7761C55.9124 35.3982 56.0045 35.9571 56.0815 36.4528C56.1682 36.9461 56.232 37.3215 56.2729 37.5791ZM56.6798 39.2862L56.958 40.4535C57.0462 40.8232 56.9707 41.1753 56.7318 41.5098C56.4928 41.8443 56.0426 42.0904 55.3812 42.2481C54.7294 42.4034 54.2155 42.382 53.8393 42.1839C53.4631 41.9857 53.2309 41.7018 53.1428 41.3321L52.868 40.1794C52.7799 39.8098 52.859 39.4517 53.1054 39.1051C53.3517 38.7586 53.8008 38.5076 54.4525 38.3522C55.114 38.1946 55.6268 38.2111 55.991 38.4019C56.3551 38.5926 56.5847 38.8874 56.6798 39.2862Z" fill="white"/>
</svg>
