<svg width="127" height="81" viewBox="0 0 127 81" fill="none" xmlns="http://www.w3.org/2000/svg">
<mask id="path-1-inside-1_2089_336" fill="white">
<rect x="61" width="64" height="81" rx="2"/>
</mask>
<rect x="61" width="64" height="81" rx="2" fill="#F27100" stroke="white" stroke-width="6" mask="url(#path-1-inside-1_2089_336)"/>
<path d="M72.7294 30H67.9774L68.2654 17.68H74.4574L75.1294 21.824H75.2734L75.9454 17.68H82.0894L82.3774 30H77.6254V23.6H77.4814L76.4734 30H73.8814L72.8734 23.44H72.7294V30ZM88.1584 25.168V25.824H93.0544V30H83.1184V17.68H92.7664V21.28H88.1584V21.936H92.3344V25.168H88.1584ZM98.4013 30H93.6493V17.68H99.2653L100.337 22.16H100.481L100.417 17.68H105.169V30H99.9853L98.4653 24.24H98.3213L98.4013 30ZM105.836 17.68H111.02V25.712C111.02 25.744 111.036 25.824 111.068 25.952C111.11 26.08 111.238 26.144 111.452 26.144C111.665 26.144 111.788 26.08 111.82 25.952C111.862 25.824 111.884 25.744 111.884 25.712V17.68H117.068V25.936C117.068 26.5227 116.972 27.0773 116.78 27.6C116.588 28.112 116.273 28.5707 115.836 28.976C115.398 29.3707 114.806 29.6853 114.06 29.92C113.324 30.144 112.406 30.256 111.308 30.256C110.337 30.256 109.505 30.1387 108.812 29.904C108.118 29.6693 107.553 29.3493 107.116 28.944C106.678 28.5387 106.353 28.08 106.14 27.568C105.937 27.056 105.836 26.5227 105.836 25.968V17.68Z" fill="white"/>
</svg>
