<svg width="1440" height="163" viewBox="0 0 1440 163" fill="none" xmlns="http://www.w3.org/2000/svg">
<rect width="1440" height="163" transform="matrix(1 0 0 -1 0 163)" fill="#F27100"/>
<path d="M18.2278 127H36.4557V109H18.2278V127Z" fill="white"/>
<path d="M36.4557 145H54.6835V127H36.4557V145Z" fill="white"/>
<path d="M54.6835 127H72.9114V109H54.6835V127Z" fill="white"/>
<path d="M0 145H18.2278V127H0V145Z" fill="white"/>
<path d="M91.1392 127H109.367V109H91.1392V127Z" fill="white"/>
<path d="M109.367 145H127.595V127H109.367V145Z" fill="white"/>
<path d="M127.595 127H145.823V109H127.595V127Z" fill="white"/>
<path d="M72.9114 145H91.1392V127H72.9114V145Z" fill="white"/>
<path d="M164.051 127H182.278V109H164.051V127Z" fill="white"/>
<path d="M182.278 145H200.506V127H182.278V145Z" fill="white"/>
<path d="M200.506 127H218.734V109H200.506V127Z" fill="white"/>
<path d="M145.823 145H164.051V127H145.823V145Z" fill="white"/>
<path d="M236.962 127H255.19V109H236.962V127Z" fill="white"/>
<path d="M255.19 145H273.418V127H255.19V145Z" fill="white"/>
<path d="M273.418 127H291.646V109H273.418V127Z" fill="white"/>
<path d="M218.734 145H236.962V127H218.734V145Z" fill="white"/>
<path d="M309.873 127H328.101V109H309.873V127Z" fill="white"/>
<path d="M328.101 145H346.329V127H328.101V145Z" fill="white"/>
<path d="M346.329 127H364.557V109H346.329V127Z" fill="white"/>
<path d="M291.646 145H309.873V127H291.646V145Z" fill="white"/>
<path d="M382.785 127H401.013V109H382.785V127Z" fill="white"/>
<path d="M401.013 145H419.241V127H401.013V145Z" fill="white"/>
<path d="M419.241 127H437.468V109H419.241V127Z" fill="white"/>
<path d="M364.557 145H382.785V127H364.557V145Z" fill="white"/>
<path d="M601.519 127H619.747V109H601.519V127Z" fill="white"/>
<path d="M619.747 145H637.975V127H619.747V145Z" fill="white"/>
<path d="M637.975 127H656.203V109H637.975V127Z" fill="white"/>
<path d="M583.291 145H601.519V127H583.291V145Z" fill="white"/>
<path d="M674.43 127H692.658V109H674.43V127Z" fill="white"/>
<path d="M692.658 145H710.886V127H692.658V145Z" fill="white"/>
<path d="M710.886 127H729.114V109H710.886V127Z" fill="white"/>
<path d="M656.203 145H674.43V127H656.203V145Z" fill="white"/>
<path d="M455.696 127H473.924V109H455.696V127Z" fill="white"/>
<path d="M473.924 145H492.152V127H473.924V145Z" fill="white"/>
<path d="M492.152 127H510.38V109H492.152V127Z" fill="white"/>
<path d="M437.468 145H455.696V127H437.468V145Z" fill="white"/>
<path d="M528.608 127H546.835V109H528.608V127Z" fill="white"/>
<path d="M546.835 145H565.063V127H546.835V145Z" fill="white"/>
<path d="M565.063 127H583.291V109H565.063V127Z" fill="white"/>
<path d="M510.38 145H528.608V127H510.38V145Z" fill="white"/>
<path d="M729.114 145H747.342V127H729.114V145Z" fill="white"/>
<path d="M765.57 127H783.797V145H765.57V127Z" fill="white"/>
<path d="M783.797 109H802.025V127H783.797V109Z" fill="white"/>
<path d="M802.025 127H820.253V145H802.025V127Z" fill="white"/>
<path d="M747.342 109H765.57V127L747.342 127V109Z" fill="white"/>
<path d="M838.481 127H856.709V145H838.481V127Z" fill="white"/>
<path d="M856.709 109H874.937V127H856.709V109Z" fill="white"/>
<path d="M874.937 127H893.165V145H874.937V127Z" fill="white"/>
<path d="M820.253 109H838.481V127H820.253V109Z" fill="white"/>
<path d="M911.392 127H929.62V145H911.392V127Z" fill="white"/>
<path d="M929.62 109H947.848V127H929.62V109Z" fill="white"/>
<path d="M947.848 127H966.076V145H947.848V127Z" fill="white"/>
<path d="M893.165 109H911.392V127H893.165V109Z" fill="white"/>
<path d="M984.304 127H1002.53V145H984.304V127Z" fill="white"/>
<path d="M1002.53 109H1020.76V127H1002.53V109Z" fill="white"/>
<path d="M1020.76 127H1038.99V145H1020.76V127Z" fill="white"/>
<path d="M966.076 109H984.304V127H966.076V109Z" fill="white"/>
<path d="M1057.22 127H1075.44V145H1057.22V127Z" fill="white"/>
<path d="M1075.44 109H1093.67V127H1075.44V109Z" fill="white"/>
<path d="M1093.67 127H1111.9V145H1093.67V127Z" fill="white"/>
<path d="M1038.99 109H1057.22V127H1038.99V109Z" fill="white"/>
<path d="M1130.13 127H1148.35V145H1130.13V127Z" fill="white"/>
<path d="M1148.35 109H1166.58V127H1148.35V109Z" fill="white"/>
<path d="M1166.58 127H1184.81V145H1166.58V127Z" fill="white"/>
<path d="M1111.9 109H1130.13V127H1111.9V109Z" fill="white"/>
<path d="M1348.86 127H1367.09V145H1348.86V127Z" fill="white"/>
<path d="M1367.09 109H1385.32V127H1367.09V109Z" fill="white"/>
<path d="M1385.32 127H1403.54V145H1385.32V127Z" fill="white"/>
<path d="M1330.63 109H1348.86V127H1330.63V109Z" fill="white"/>
<path d="M1421.77 127H1440V145H1421.77V127Z" fill="white"/>
<path d="M1403.54 109H1421.77V127H1403.54V109Z" fill="white"/>
<path d="M1203.04 127H1221.27V145H1203.04V127Z" fill="white"/>
<path d="M1221.27 109H1239.49V127H1221.27V109Z" fill="white"/>
<path d="M1239.49 127H1257.72V145H1239.49V127Z" fill="white"/>
<path d="M1184.81 109H1203.04V127H1184.81V109Z" fill="white"/>
<path d="M1275.95 127H1294.18V145H1275.95V127Z" fill="white"/>
<path d="M1294.18 109H1312.41V127H1294.18V109Z" fill="white"/>
<path d="M1312.41 127H1330.63V145H1312.41V127Z" fill="white"/>
<path d="M1257.72 109H1275.95V127H1257.72V109Z" fill="white"/>
</svg>
