<svg width="1440" height="163" viewBox="0 0 1440 163" fill="none" xmlns="http://www.w3.org/2000/svg">
<rect width="1440" height="163" fill="#F27100"/>
<path d="M18.2278 36H36.4557V54H18.2278V36Z" fill="white"/>
<path d="M36.4557 18H54.6835V36H36.4557V18Z" fill="white"/>
<path d="M54.6835 36H72.9114V54H54.6835V36Z" fill="white"/>
<path d="M0 18H18.2278V36H0V18Z" fill="white"/>
<path d="M91.1392 36H109.367V54H91.1392V36Z" fill="white"/>
<path d="M109.367 18H127.595V36H109.367V18Z" fill="white"/>
<path d="M127.595 36H145.823V54H127.595V36Z" fill="white"/>
<path d="M72.9114 18H91.1392V36H72.9114V18Z" fill="white"/>
<path d="M164.051 36H182.278V54H164.051V36Z" fill="white"/>
<path d="M182.278 18H200.506V36H182.278V18Z" fill="white"/>
<path d="M200.506 36H218.734V54H200.506V36Z" fill="white"/>
<path d="M145.823 18H164.051V36H145.823V18Z" fill="white"/>
<path d="M236.962 36H255.19V54H236.962V36Z" fill="white"/>
<path d="M255.19 18H273.418V36H255.19V18Z" fill="white"/>
<path d="M273.418 36H291.646V54H273.418V36Z" fill="white"/>
<path d="M218.734 18H236.962V36H218.734V18Z" fill="white"/>
<path d="M309.873 36H328.101V54H309.873V36Z" fill="white"/>
<path d="M328.101 18H346.329V36H328.101V18Z" fill="white"/>
<path d="M346.329 36H364.557V54H346.329V36Z" fill="white"/>
<path d="M291.646 18H309.873V36H291.646V18Z" fill="white"/>
<path d="M382.785 36H401.013V54H382.785V36Z" fill="white"/>
<path d="M401.013 18H419.24V36H401.013V18Z" fill="white"/>
<path d="M419.24 36H437.468V54H419.24V36Z" fill="white"/>
<path d="M364.557 18H382.785V36H364.557V18Z" fill="white"/>
<path d="M601.519 36H619.747V54H601.519V36Z" fill="white"/>
<path d="M619.747 18H637.975V36H619.747V18Z" fill="white"/>
<path d="M637.975 36H656.203V54H637.975V36Z" fill="white"/>
<path d="M583.291 18H601.519V36H583.291V18Z" fill="white"/>
<path d="M674.43 36H692.658V54H674.43V36Z" fill="white"/>
<path d="M692.658 18H710.886V36H692.658V18Z" fill="white"/>
<path d="M710.886 36H729.114V54H710.886V36Z" fill="white"/>
<path d="M656.203 18H674.43V36H656.203V18Z" fill="white"/>
<path d="M455.696 36H473.924V54H455.696V36Z" fill="white"/>
<path d="M473.924 18H492.152V36H473.924V18Z" fill="white"/>
<path d="M492.152 36H510.38V54H492.152V36Z" fill="white"/>
<path d="M437.468 18H455.696V36H437.468V18Z" fill="white"/>
<path d="M528.608 36H546.835V54H528.608V36Z" fill="white"/>
<path d="M546.835 18H565.063V36H546.835V18Z" fill="white"/>
<path d="M565.063 36H583.291V54H565.063V36Z" fill="white"/>
<path d="M510.38 18H528.608V36H510.38V18Z" fill="white"/>
<path d="M729.114 18H747.342V36H729.114V18Z" fill="white"/>
<path d="M765.57 36H783.797V18H765.57V36Z" fill="white"/>
<path d="M783.797 54H802.025V36H783.797V54Z" fill="white"/>
<path d="M802.025 36H820.253V18H802.025V36Z" fill="white"/>
<path d="M747.342 54H765.57V36L747.342 36V54Z" fill="white"/>
<path d="M838.481 36H856.709V18H838.481V36Z" fill="white"/>
<path d="M856.709 54H874.937V36H856.709V54Z" fill="white"/>
<path d="M874.937 36H893.165V18H874.937V36Z" fill="white"/>
<path d="M820.253 54H838.481V36H820.253V54Z" fill="white"/>
<path d="M911.392 36H929.62V18H911.392V36Z" fill="white"/>
<path d="M929.62 54H947.848V36H929.62V54Z" fill="white"/>
<path d="M947.848 36H966.076V18H947.848V36Z" fill="white"/>
<path d="M893.165 54H911.392V36H893.165V54Z" fill="white"/>
<path d="M984.304 36H1002.53V18H984.304V36Z" fill="white"/>
<path d="M1002.53 54H1020.76V36H1002.53V54Z" fill="white"/>
<path d="M1020.76 36H1038.99V18H1020.76V36Z" fill="white"/>
<path d="M966.076 54H984.304V36H966.076V54Z" fill="white"/>
<path d="M1057.22 36H1075.44V18H1057.22V36Z" fill="white"/>
<path d="M1075.44 54H1093.67V36H1075.44V54Z" fill="white"/>
<path d="M1093.67 36H1111.9V18H1093.67V36Z" fill="white"/>
<path d="M1038.99 54H1057.22V36H1038.99V54Z" fill="white"/>
<path d="M1130.13 36H1148.35V18H1130.13V36Z" fill="white"/>
<path d="M1148.35 54H1166.58V36H1148.35V54Z" fill="white"/>
<path d="M1166.58 36H1184.81V18H1166.58V36Z" fill="white"/>
<path d="M1111.9 54H1130.13V36H1111.9V54Z" fill="white"/>
<path d="M1348.86 36H1367.09V18H1348.86V36Z" fill="white"/>
<path d="M1367.09 54H1385.32V36H1367.09V54Z" fill="white"/>
<path d="M1385.32 36H1403.54V18H1385.32V36Z" fill="white"/>
<path d="M1330.63 54H1348.86V36H1330.63V54Z" fill="white"/>
<path d="M1421.77 36H1440V18H1421.77V36Z" fill="white"/>
<path d="M1403.54 54H1421.77V36H1403.54V54Z" fill="white"/>
<path d="M1203.04 36H1221.27V18H1203.04V36Z" fill="white"/>
<path d="M1221.27 54H1239.49V36H1221.27V54Z" fill="white"/>
<path d="M1239.49 36H1257.72V18H1239.49V36Z" fill="white"/>
<path d="M1184.81 54H1203.04V36H1184.81V54Z" fill="white"/>
<path d="M1275.95 36H1294.18V18H1275.95V36Z" fill="white"/>
<path d="M1294.18 54H1312.41V36H1294.18V54Z" fill="white"/>
<path d="M1312.41 36H1330.63V18H1312.41V36Z" fill="white"/>
<path d="M1257.72 54H1275.95V36H1257.72V54Z" fill="white"/>
</svg>
