<svg width="470" height="133" viewBox="0 0 470 133" fill="none" xmlns="http://www.w3.org/2000/svg">
<path d="M70 98H400V133H70V98Z" fill="#F27100"/>
<path d="M435 98H470V133H435V98Z" fill="#F27100"/>
<path d="M435 28H470V63H435V28Z" fill="#F27100"/>
<path d="M0 28H35V63H0V28Z" fill="#F27100"/>
<path d="M400 63H435V98H400V63Z" fill="#F27100"/>
<path d="M0 98H35V133H0V98Z" fill="#F27100"/>
<path d="M35 63H70V98H35V63Z" fill="#F27100"/>
<path d="M83.332 46.168C82.82 45.5707 82.052 44.8027 81.028 43.864C80.004 42.9254 79.0867 42.2214 78.276 41.752C81.0493 39.832 83.588 37.528 85.892 34.84C88.2387 32.152 90.244 29.336 91.908 26.392C93.6147 23.4054 94.8307 20.5894 95.556 17.944L101.444 19.992C100.42 23.192 99.0333 26.392 97.284 29.592C95.5347 32.792 93.4867 35.8214 91.14 38.68C88.7933 41.496 86.1907 43.992 83.332 46.168ZM127.748 44.248C127.065 42.4987 126.127 40.5574 124.932 38.424C123.78 36.2907 122.479 34.1574 121.028 32.024C119.62 29.848 118.191 27.8427 116.74 26.008C115.289 24.1307 113.924 22.5947 112.644 21.4L117.38 17.944C118.788 19.2667 120.26 20.8454 121.796 22.68C123.375 24.5147 124.911 26.4774 126.404 28.568C127.897 30.6587 129.284 32.7494 130.564 34.84C131.844 36.9307 132.932 38.9147 133.828 40.792C133.145 41.1334 132.164 41.6667 130.884 42.392C129.647 43.0747 128.601 43.6934 127.748 44.248ZM126.788 17.112C125.081 17.112 123.609 16.4934 122.372 15.256C121.135 14.0187 120.516 12.5467 120.516 10.84C120.516 9.09071 121.135 7.61871 122.372 6.42404C123.609 5.18671 125.081 4.56804 126.788 4.56804C128.537 4.56804 130.009 5.18671 131.204 6.42404C132.441 7.61871 133.06 9.09071 133.06 10.84C133.06 12.5467 132.441 14.0187 131.204 15.256C130.009 16.4934 128.537 17.112 126.788 17.112ZM126.788 14.744C127.855 14.744 128.772 14.36 129.54 13.592C130.308 12.824 130.692 11.9067 130.692 10.84C130.692 9.77338 130.308 8.85604 129.54 8.08804C128.772 7.32004 127.855 6.93604 126.788 6.93604C125.721 6.93604 124.804 7.32004 124.036 8.08804C123.268 8.85604 122.884 9.77338 122.884 10.84C122.884 11.9067 123.268 12.824 124.036 13.592C124.804 14.36 125.721 14.744 126.788 14.744Z" fill="#F27100"/>
<path d="M153.028 52.632L149.7 46.68C152.729 45.9547 155.908 44.8667 159.236 43.416C162.564 41.9227 165.849 40.1947 169.092 38.232C172.377 36.2694 175.513 34.1787 178.5 31.96C181.487 29.6987 184.175 27.4374 186.564 25.176C188.996 22.9147 190.98 20.7387 192.516 18.648C192.644 19.1174 192.879 19.7787 193.22 20.632C193.561 21.4427 193.924 22.2534 194.308 23.064C194.692 23.832 194.991 24.408 195.204 24.792C193.156 27.352 190.553 29.9974 187.396 32.728C184.239 35.4587 180.761 38.104 176.964 40.664C173.167 43.1814 169.22 45.4854 165.124 47.576C161.028 49.6667 156.996 51.352 153.028 52.632ZM160.644 24.216C160.175 23.704 159.428 23.0427 158.404 22.232C157.423 21.3787 156.335 20.5254 155.14 19.672C153.945 18.776 152.772 17.9654 151.62 17.24C150.511 16.472 149.572 15.9174 148.804 15.576L152.772 10.584C153.54 11.0107 154.479 11.608 155.588 12.376C156.74 13.144 157.913 13.9547 159.108 14.808C160.303 15.6614 161.412 16.4934 162.436 17.304C163.46 18.1147 164.249 18.776 164.804 19.288L160.644 24.216Z" fill="#F27100"/>
<path d="M239.108 54.744C238.895 53.976 238.425 53.016 237.7 51.864C237.017 50.6694 236.335 49.7734 235.652 49.176C239.492 48.5787 242.756 47.4694 245.444 45.848C248.132 44.2267 250.201 42.2427 251.652 39.896C253.145 37.5494 253.956 35.0107 254.084 32.28C254.212 29.72 253.849 27.3734 252.996 25.24C252.185 23.064 251.012 21.1654 249.476 19.544C247.94 17.9227 246.148 16.6427 244.1 15.704C242.095 14.7227 239.94 14.168 237.636 14.04C237.337 18.1787 236.719 22.36 235.78 26.584C234.841 30.808 233.561 34.7334 231.94 38.36C230.361 41.9867 228.463 45.016 226.244 47.448C224.751 49.0694 223.236 50.0294 221.7 50.328C220.207 50.6267 218.628 50.4347 216.964 49.752C215.343 49.0694 213.892 47.96 212.612 46.424C211.332 44.8454 210.351 42.968 209.668 40.792C208.985 38.616 208.708 36.2694 208.836 33.752C209.049 29.9974 209.924 26.5414 211.46 23.384C213.039 20.2267 215.151 17.5174 217.796 15.256C220.441 12.952 223.471 11.224 226.884 10.072C230.297 8.87738 233.945 8.38671 237.828 8.60004C240.9 8.77071 243.801 9.47471 246.532 10.712C249.263 11.9494 251.673 13.6347 253.764 15.768C255.855 17.9014 257.455 20.3974 258.564 23.256C259.716 26.1147 260.207 29.272 260.036 32.728C259.737 38.2747 257.753 42.968 254.084 46.808C250.415 50.648 245.423 53.2934 239.108 54.744ZM218.628 43.8C219.097 44.0987 219.652 44.248 220.292 44.248C220.932 44.2054 221.551 43.864 222.148 43.224C223.812 41.4747 225.305 39.0854 226.628 36.056C227.993 33.0267 229.124 29.6347 230.02 25.88C230.916 22.1254 231.492 18.3067 231.748 14.424C228.505 15.0214 225.625 16.2587 223.108 18.136C220.591 20.0134 218.585 22.3174 217.092 25.048C215.599 27.7787 214.767 30.7654 214.596 34.008C214.468 36.3547 214.809 38.4027 215.62 40.152C216.431 41.8587 217.433 43.0747 218.628 43.8Z" fill="#F27100"/>
<path d="M290.308 58.712C288.217 58.712 286.745 58.392 285.892 57.752C285.081 57.112 284.676 56.024 284.676 54.488V33.56H271.492V8.34404H279.428C279.855 7.19204 280.26 5.89071 280.644 4.44004C281.028 2.98938 281.305 1.81604 281.476 0.920044L287.172 1.49604C286.959 2.22138 286.617 3.26671 286.148 4.63204C285.679 5.99738 285.231 7.23471 284.804 8.34404H297.668V33.56H289.732V46.104L290.436 45.976C290.82 44.9947 291.204 43.8 291.588 42.392C291.972 40.984 292.335 39.5974 292.676 38.232C293.017 36.8667 293.252 35.7574 293.38 34.904L297.476 35.928C297.177 37.208 296.751 38.7227 296.196 40.472C295.684 42.2214 295.172 43.8214 294.66 45.272C295.257 45.144 295.833 45.0374 296.388 44.952C296.985 44.824 297.519 44.7174 297.988 44.632C297.689 44.12 297.391 43.6294 297.092 43.16C296.836 42.6907 296.58 42.3067 296.324 42.008L299.652 40.152C300.249 41.0054 300.868 41.9867 301.508 43.096C302.191 44.1627 302.809 45.2294 303.364 46.296C303.961 47.3627 304.431 48.3014 304.772 49.112C304.473 49.1974 304.068 49.368 303.556 49.624C303.044 49.88 302.553 50.136 302.084 50.392C301.615 50.648 301.295 50.84 301.124 50.968C300.953 50.584 300.761 50.1574 300.548 49.688C300.335 49.2187 300.1 48.7067 299.844 48.152C298.308 48.536 296.559 48.9414 294.596 49.368C292.633 49.752 291.012 50.0507 289.732 50.264V51.864C289.732 52.4614 289.881 52.9094 290.18 53.208C290.479 53.464 291.076 53.592 291.972 53.592H318.596C319.705 53.592 320.559 53.4214 321.156 53.08C321.796 52.7387 322.287 52.0774 322.628 51.096C322.969 50.072 323.225 48.5787 323.396 46.616C323.951 46.9147 324.761 47.2347 325.828 47.576C326.895 47.9174 327.769 48.1947 328.452 48.408C328.111 51.2667 327.62 53.4427 326.98 54.936C326.34 56.3867 325.465 57.368 324.356 57.88C323.289 58.4347 321.903 58.712 320.196 58.712H290.308ZM310.148 51.096V33.944C307.929 37.272 305.561 40.1307 303.044 42.52C302.66 41.9654 302.063 41.3254 301.252 40.6C300.484 39.832 299.844 39.2987 299.332 39C300.484 38.104 301.657 36.9947 302.852 35.672C304.089 34.3067 305.284 32.856 306.436 31.32C307.588 29.784 308.591 28.2907 309.444 26.84H299.844V22.168H310.148V15.64H300.74V10.968H310.148V2.00804H315.204V10.968H324.356V15.64H315.204V22.168H326.596V26.84H316.356C317.295 28.376 318.383 29.9974 319.62 31.704C320.9 33.368 322.223 34.9254 323.588 36.376C324.953 37.8267 326.255 39.0214 327.492 39.96C327.023 40.3014 326.404 40.856 325.636 41.624C324.868 42.3494 324.292 43.0107 323.908 43.608C322.415 42.2427 320.9 40.664 319.364 38.872C317.871 37.08 316.484 35.1814 315.204 33.176V51.096H310.148ZM272.132 59.544C271.876 59.288 271.471 58.9467 270.916 58.52C270.404 58.0934 269.871 57.688 269.316 57.304C268.804 56.92 268.377 56.6854 268.036 56.6C270.767 54.2534 272.921 51.2667 274.5 47.64C276.079 43.9707 276.975 39.8107 277.188 35.16L282.18 35.8C282.009 40.664 281.007 45.208 279.172 49.432C277.38 53.6134 275.033 56.984 272.132 59.544ZM286.852 29.08H292.548V23H286.852V29.08ZM276.548 29.08H282.18V23H276.548V29.08ZM286.852 18.776H292.548V12.824H286.852V18.776ZM276.548 18.776H282.18V12.824H276.548V18.776Z" fill="#F27100"/>
<path d="M337.796 58.648C337.583 58.136 337.241 57.5387 336.772 56.856C336.303 56.216 335.833 55.5974 335.364 55C334.895 54.36 334.489 53.8907 334.148 53.592C337.945 52.0987 341.231 50.4347 344.004 48.6C346.777 46.7227 349.081 44.5254 350.916 42.008C352.751 39.4907 354.18 36.5254 355.204 33.112C356.271 29.656 356.953 25.5814 357.252 20.888H336.708V15.128H357.508V2.84004H363.78V13.208C363.78 13.5067 363.759 13.8267 363.716 14.168C363.716 14.4667 363.716 14.7867 363.716 15.128H386.692C386.692 22.7227 386.436 29.3147 385.924 34.904C385.412 40.4507 384.857 44.5894 384.26 47.32C383.705 50.0934 382.937 52.2694 381.956 53.848C380.975 55.4267 379.673 56.536 378.052 57.176C376.431 57.816 374.34 58.136 371.78 58.136H366.084C365.999 57.24 365.807 56.152 365.508 54.872C365.209 53.592 364.889 52.5894 364.548 51.864H371.652C373.529 51.864 374.937 51.48 375.876 50.712C376.815 49.9014 377.54 48.4294 378.052 46.296C378.436 44.8027 378.799 43.0534 379.14 41.048C379.481 39.0427 379.759 36.44 379.972 33.24C380.228 30.04 380.356 25.9227 380.356 20.888H363.524C363.097 27.1174 362.009 32.5787 360.26 37.272C358.511 41.9227 355.823 45.9974 352.196 49.496C348.612 52.952 343.812 56.0027 337.796 58.648Z" fill="#F27100"/>
</svg>
