<svg width="867" height="127" viewBox="0 0 867 127" fill="none" xmlns="http://www.w3.org/2000/svg">
<path d="M35 92.4347H832V127H35V92.4347Z" fill="#F27100"/>
<path d="M832 58.857H867V93.4223H832V58.857Z" fill="#F27100"/>
<path d="M797 24.2918H832V58.857H797V24.2918Z" fill="#F27100"/>
<path d="M0 57.8695H35V92.4347H0V57.8695Z" fill="#F27100"/>
<path d="M35 23.3042H70V57.8695H35V23.3042Z" fill="#F27100"/>
<path d="M217.96 46.612C215.395 46.924 213.124 46.8027 211.148 46.2481C209.172 45.7281 207.629 44.8441 206.52 43.5961C205.411 42.348 204.856 40.7881 204.856 38.916C204.856 36.4547 205.844 34.0454 207.82 31.688C209.831 29.296 212.587 27.3547 216.088 25.864V18.012C214.181 18.1507 212.327 18.2547 210.524 18.324C208.756 18.3934 207.109 18.3934 205.584 18.324L205.272 12.344C206.589 12.4827 208.201 12.5347 210.108 12.5C212.015 12.4307 214.008 12.292 216.088 12.084V3.71205L221.86 3.76405V11.408C223.593 11.1307 225.205 10.836 226.696 10.524C228.221 10.1774 229.469 9.81338 230.44 9.43205L231.064 15.1521C229.851 15.6027 228.447 16.0014 226.852 16.3481C225.257 16.6947 223.593 17.0067 221.86 17.284V24.0961C223.073 23.8187 224.339 23.6107 225.656 23.472C226.973 23.3334 228.343 23.264 229.764 23.264C233.092 23.264 235.917 23.784 238.24 24.824C240.597 25.8294 242.383 27.1987 243.596 28.932C244.809 30.6307 245.416 32.5547 245.416 34.704C245.416 38.032 244.411 40.6494 242.4 42.556C240.389 44.4627 237.668 45.3987 234.236 45.3641C231.567 45.3641 229.313 44.7054 227.476 43.3881C225.673 42.036 224.373 40.0427 223.576 37.4081C224.373 37.1654 225.344 36.8014 226.488 36.316C227.632 35.796 228.533 35.3107 229.192 34.8601C230.059 37.7374 231.723 39.176 234.184 39.176C235.709 39.176 236.871 38.7427 237.668 37.876C238.465 36.9747 238.864 35.8654 238.864 34.548C238.864 32.8494 238.101 31.4454 236.576 30.3361C235.051 29.192 232.763 28.62 229.712 28.62C226.939 28.62 224.321 28.9667 221.86 29.66V42.6081C221.86 43.8907 221.565 44.8267 220.976 45.416C220.387 46.0401 219.381 46.4387 217.96 46.612ZM244.428 22.536C243.596 21.704 242.469 20.8027 241.048 19.832C239.627 18.8267 238.171 17.8907 236.68 17.024C235.189 16.1227 233.855 15.4467 232.676 14.996L235.952 10.316C237.2 10.8014 238.569 11.46 240.06 12.292C241.551 13.124 243.007 14.008 244.428 14.944C245.849 15.8801 247.045 16.7814 248.016 17.648C247.669 18.0294 247.236 18.5494 246.716 19.208C246.231 19.8667 245.763 20.508 245.312 21.132C244.896 21.7561 244.601 22.224 244.428 22.536ZM214.216 41.1C214.875 41.1347 215.343 41.0654 215.62 40.8921C215.932 40.7187 216.088 40.4067 216.088 39.9561V32C214.493 32.9707 213.228 34.028 212.292 35.1721C211.356 36.3161 210.888 37.46 210.888 38.604C210.888 39.4014 211.183 40.008 211.772 40.424C212.361 40.84 213.176 41.0654 214.216 41.1Z" fill="#F27100"/>
<path d="M269.492 48.5881C269.076 47.8947 268.521 47.0627 267.828 46.092C267.135 45.1214 266.337 44.2894 265.436 43.5961C269.111 42.556 271.936 41.3601 273.912 40.008C275.888 38.6214 277.257 36.9921 278.02 35.12C276.911 35.6747 275.801 35.952 274.692 35.952C272.057 35.952 269.925 35.2067 268.296 33.716C266.701 32.2254 265.852 30.2147 265.748 27.684C265.679 25.9507 266.025 24.408 266.788 23.056C267.551 21.6694 268.625 20.5774 270.012 19.78C271.399 18.9827 272.976 18.584 274.744 18.584C275.021 18.584 275.264 18.6014 275.472 18.636C275.68 18.636 275.905 18.6534 276.148 18.688C276.079 18.064 276.009 17.4227 275.94 16.764C275.871 16.1054 275.836 15.412 275.836 14.684C273.028 14.788 270.289 14.944 267.62 15.1521C264.951 15.36 262.507 15.6027 260.288 15.88C258.069 16.1227 256.232 16.4174 254.776 16.764L253.892 10.732C255.14 10.628 256.891 10.524 259.144 10.42C261.397 10.2814 263.963 10.1427 266.84 10.004C269.752 9.86538 272.751 9.72671 275.836 9.58805V2.25605H281.868V9.32805C284.572 9.22405 287.155 9.13738 289.616 9.06805C292.077 8.96405 294.279 8.89472 296.22 8.86005C298.161 8.79071 299.687 8.77338 300.796 8.80805L300.38 14.892C298.369 14.6494 295.7 14.5107 292.372 14.476C289.079 14.4067 285.577 14.4067 281.868 14.476C281.868 15.724 281.903 16.9894 281.972 18.2721C282.076 19.5547 282.163 20.7854 282.232 21.964C283.931 23.9747 284.78 26.644 284.78 29.972C284.78 34.5827 283.445 38.4654 280.776 41.62C278.107 44.74 274.345 47.0627 269.492 48.5881ZM274.744 30.752C275.715 30.6827 276.477 30.3534 277.032 29.764C277.587 29.1747 277.864 28.4121 277.864 27.476C277.864 27.164 277.829 26.8347 277.76 26.4881C277.725 26.1067 277.673 25.708 277.604 25.292C276.876 24.46 275.957 24.044 274.848 24.044C273.877 24.044 273.063 24.356 272.404 24.98C271.745 25.604 271.433 26.4014 271.468 27.372C271.468 28.3774 271.763 29.2094 272.352 29.868C272.976 30.4921 273.773 30.7867 274.744 30.752Z" fill="#F27100"/>
<path d="M321.492 48.5881C321.076 47.8947 320.521 47.0627 319.828 46.092C319.135 45.1214 318.337 44.2894 317.436 43.5961C321.111 42.556 323.936 41.3601 325.912 40.008C327.888 38.6214 329.257 36.9921 330.02 35.12C328.911 35.6747 327.801 35.952 326.692 35.952C324.057 35.952 321.925 35.2067 320.296 33.716C318.701 32.2254 317.852 30.2147 317.748 27.684C317.679 25.9507 318.025 24.408 318.788 23.056C319.551 21.6694 320.625 20.5774 322.012 19.78C323.399 18.9827 324.976 18.584 326.744 18.584C327.021 18.584 327.264 18.6014 327.472 18.636C327.68 18.636 327.905 18.6534 328.148 18.688C328.079 18.064 328.009 17.4227 327.94 16.764C327.871 16.1054 327.836 15.412 327.836 14.684C325.028 14.788 322.289 14.944 319.62 15.1521C316.951 15.36 314.507 15.6027 312.288 15.88C310.069 16.1227 308.232 16.4174 306.776 16.764L305.892 10.732C307.14 10.628 308.891 10.524 311.144 10.42C313.397 10.2814 315.963 10.1427 318.84 10.004C321.752 9.86538 324.751 9.72671 327.836 9.58805V2.25605H333.868V9.32805C336.572 9.22405 339.155 9.13738 341.616 9.06805C344.077 8.96405 346.279 8.89472 348.22 8.86005C350.161 8.79071 351.687 8.77338 352.796 8.80805L352.38 14.892C350.369 14.6494 347.7 14.5107 344.372 14.476C341.079 14.4067 337.577 14.4067 333.868 14.476C333.868 15.724 333.903 16.9894 333.972 18.2721C334.076 19.5547 334.163 20.7854 334.232 21.964C335.931 23.9747 336.78 26.644 336.78 29.972C336.78 34.5827 335.445 38.4654 332.776 41.62C330.107 44.74 326.345 47.0627 321.492 48.5881ZM326.744 30.752C327.715 30.6827 328.477 30.3534 329.032 29.764C329.587 29.1747 329.864 28.4121 329.864 27.476C329.864 27.164 329.829 26.8347 329.76 26.4881C329.725 26.1067 329.673 25.708 329.604 25.292C328.876 24.46 327.957 24.044 326.848 24.044C325.877 24.044 325.063 24.356 324.404 24.98C323.745 25.604 323.433 26.4014 323.468 27.372C323.468 28.3774 323.763 29.2094 324.352 29.868C324.976 30.4921 325.773 30.7867 326.744 30.752Z" fill="#F27100"/>
<path d="M383.788 45.9361C383.58 45.1387 383.147 44.1681 382.488 43.0241C381.864 41.8801 381.205 40.944 380.512 40.216C385.435 39.9387 389.196 38.7427 391.796 36.628C394.431 34.5134 395.748 31.6534 395.748 28.048C395.748 25.8294 395.089 23.9227 393.772 22.328C392.455 20.7334 390.652 19.5894 388.364 18.896C386.492 22.952 384.36 26.644 381.968 29.972C383.008 30.7347 384.013 31.3587 384.984 31.844C384.291 32.364 383.597 33.1094 382.904 34.0801C382.211 35.0161 381.673 35.8654 381.292 36.628C380.772 36.3507 380.252 36.056 379.732 35.744C379.212 35.3974 378.692 35.0334 378.172 34.6521C376.023 37.0441 373.873 38.864 371.724 40.112C369.783 41.2561 367.963 41.8107 366.264 41.7761C364.6 41.7067 363.248 41.0654 362.208 39.8521C361.203 38.604 360.7 36.7667 360.7 34.34C360.7 31.8094 361.255 29.348 362.364 26.9561C363.473 24.5294 364.947 22.3627 366.784 20.456C365.744 18.5147 364.808 16.5907 363.976 14.684C363.179 12.7427 362.52 10.94 362 9.27605L367.46 7.09205C367.703 8.54805 368.136 10.108 368.76 11.772C369.384 13.436 370.164 15.1347 371.1 16.868C372.937 15.6547 374.879 14.7187 376.924 14.06C379.004 13.3667 381.119 13.0201 383.268 13.0201H384.412C385.001 11.3907 385.504 9.76138 385.92 8.13205C386.371 6.46805 386.683 4.89072 386.856 3.40005L393.096 4.96005C392.784 6.45071 392.403 7.95871 391.952 9.48405C391.536 10.9747 391.033 12.4827 390.444 14.008C392.905 14.736 394.985 15.8107 396.684 17.232C398.417 18.6187 399.735 20.248 400.636 22.12C401.572 23.9574 402.04 25.9334 402.04 28.048C402.04 31.168 401.347 33.9934 399.96 36.5241C398.573 39.0201 396.528 41.0827 393.824 42.7121C391.12 44.3414 387.775 45.416 383.788 45.9361ZM369.02 35.2761C370.684 34.3747 372.383 32.9187 374.116 30.908C373.319 30.0414 372.556 29.1401 371.828 28.2041C371.1 27.2334 370.389 26.2627 369.696 25.292C368.621 26.6094 367.772 28.0307 367.148 29.556C366.559 31.0814 366.264 32.6414 366.264 34.236C366.264 35.9001 367.183 36.2467 369.02 35.2761ZM377.704 26.176C379.333 23.68 380.824 21.0454 382.176 18.2721C380.72 18.376 379.281 18.7054 377.86 19.26C376.439 19.78 375.104 20.4907 373.856 21.392C375.035 23.056 376.317 24.6507 377.704 26.176Z" fill="#F27100"/>
<path d="M415.248 38.188C414.624 37.4947 413.792 36.6974 412.752 35.7961C411.747 34.8947 410.776 34.1667 409.84 33.612C412.128 32.0174 414.225 30.1107 416.132 27.892C418.039 25.6734 419.651 23.3507 420.968 20.924C422.285 18.4627 423.221 16.1227 423.776 13.904L430.016 16.036C429.253 18.74 428.161 21.4614 426.74 24.2001C425.353 26.904 423.689 29.452 421.748 31.844C419.807 34.236 417.64 36.3507 415.248 38.188ZM450.192 36.732C449.603 35.2067 448.823 33.5427 447.852 31.74C446.916 29.9027 445.859 28.0827 444.68 26.28C443.536 24.4774 442.357 22.8134 441.144 21.288C439.965 19.728 438.839 18.4627 437.764 17.492L442.86 13.904C444.073 15.0134 445.321 16.3307 446.604 17.856C447.921 19.3814 449.204 21.0107 450.452 22.744C451.735 24.4774 452.896 26.2454 453.936 28.048C455.011 29.816 455.929 31.5147 456.692 33.1441C455.825 33.5254 454.768 34.0454 453.52 34.704C452.307 35.3627 451.197 36.0387 450.192 36.732ZM450.244 13.644C448.823 13.644 447.592 13.1414 446.552 12.136C445.547 11.1307 445.044 9.91738 445.044 8.49605C445.044 7.07472 445.547 5.86138 446.552 4.85605C447.592 3.85071 448.823 3.34805 450.244 3.34805C451.665 3.34805 452.879 3.85071 453.884 4.85605C454.889 5.86138 455.392 7.07472 455.392 8.49605C455.392 9.91738 454.889 11.1307 453.884 12.136C452.879 13.1414 451.665 13.644 450.244 13.644ZM450.244 11.46C451.041 11.46 451.717 11.1654 452.272 10.576C452.861 9.98672 453.156 9.29338 453.156 8.49605C453.156 7.69872 452.861 7.00538 452.272 6.41605C451.717 5.82671 451.041 5.53205 450.244 5.53205C449.412 5.53205 448.701 5.82671 448.112 6.41605C447.557 7.00538 447.28 7.69872 447.28 8.49605C447.28 9.29338 447.557 9.98672 448.112 10.576C448.701 11.1654 449.412 11.46 450.244 11.46Z" fill="#F27100"/>
<path d="M471.356 43.544L467.82 37.148C470.281 36.628 472.864 35.7787 475.568 34.6C478.307 33.3867 481.045 31.9827 483.784 30.3881C486.523 28.7587 489.123 27.0254 491.584 25.188C494.045 23.316 496.264 21.4267 498.24 19.5201C500.251 17.6134 501.88 15.7934 503.128 14.06C503.267 14.6494 503.492 15.3774 503.804 16.244C504.151 17.1107 504.515 17.9601 504.896 18.792C505.277 19.5894 505.607 20.2134 505.884 20.664C504.185 22.848 502.053 25.0667 499.488 27.32C496.957 29.5387 494.149 31.6881 491.064 33.7681C487.979 35.8134 484.755 37.6854 481.392 39.384C478.029 41.0827 474.684 42.4694 471.356 43.544ZM476.92 20.612C476.469 20.1267 475.828 19.5547 474.996 18.896C474.199 18.2374 473.297 17.544 472.292 16.816C471.321 16.088 470.368 15.4294 469.432 14.84C468.496 14.216 467.681 13.748 466.988 13.436L471.148 8.18405C471.841 8.56538 472.656 9.05072 473.592 9.64005C474.528 10.2294 475.481 10.8707 476.452 11.564C477.457 12.2574 478.393 12.9507 479.26 13.644C480.127 14.3027 480.82 14.892 481.34 15.4121L476.92 20.612Z" fill="#F27100"/>
<path d="M517.428 48.4841C517.047 48.1721 516.509 47.8427 515.816 47.4961C515.157 47.1494 514.481 46.82 513.788 46.508C513.095 46.2307 512.505 46.0401 512.02 45.9361C513.719 43.1627 515.019 39.8521 515.92 36.0041C516.856 32.1561 517.324 27.5627 517.324 22.224V2.72405H558.04V14.996H523.356V17.5961H560.224V22.1721H550.916C552.233 23.3507 553.62 24.6507 555.076 26.072C556.532 27.4587 557.797 28.7241 558.872 29.868C558.213 30.284 557.433 30.8907 556.532 31.688C555.665 32.4854 554.972 33.196 554.452 33.82C554.105 33.3347 553.689 32.7974 553.204 32.208C552.753 31.6187 552.251 31.0294 551.696 30.4401C550.656 30.5441 549.443 30.648 548.056 30.752C546.669 30.856 545.179 30.96 543.584 31.064V34.704H554.816V39.4361H543.584V42.972H560.12V47.7561H522.264V42.972H537.396V39.4361H525.904V34.704H537.396V31.428C535.004 31.5667 532.716 31.688 530.532 31.792C528.383 31.8614 526.632 31.896 525.28 31.896L524.604 27.06C525.401 27.06 526.337 27.06 527.412 27.06C528.521 27.0254 529.7 26.9907 530.948 26.9561C531.433 26.1587 531.901 25.3267 532.352 24.46C532.837 23.5934 533.253 22.8307 533.6 22.1721H523.356V22.224C523.356 27.9787 522.836 33.0227 521.796 37.356C520.756 41.6894 519.3 45.3987 517.428 48.4841ZM523.356 10.42H552.008V7.30005H523.356V10.42ZM537.24 26.748C539.077 26.6787 540.897 26.6094 542.7 26.54C544.537 26.4707 546.201 26.4014 547.692 26.332C547.207 25.8467 546.704 25.396 546.184 24.98C545.664 24.564 545.161 24.1654 544.676 23.784L546.756 22.1721H539.996C539.58 22.9347 539.129 23.7147 538.644 24.512C538.159 25.3094 537.691 26.0547 537.24 26.748Z" fill="#F27100"/>
<path d="M573.848 48.7961V27.684C572.427 27.8574 571.057 28.0307 569.74 28.2041C568.423 28.3427 567.279 28.4467 566.308 28.5161L565.58 22.9C566.724 22.9 568.041 22.848 569.532 22.744C570.121 22.1201 570.745 21.392 571.404 20.56C572.097 19.7281 572.791 18.8267 573.484 17.856C572.305 16.9547 570.919 15.9667 569.324 14.892C567.764 13.7827 566.343 12.864 565.06 12.136L567.972 7.45605C568.319 7.66405 568.683 7.88938 569.064 8.13205C569.445 8.37472 569.861 8.63472 570.312 8.91205C570.797 8.11472 571.317 7.23072 571.872 6.26005C572.427 5.28938 572.929 4.33605 573.38 3.40005C573.865 2.46405 574.229 1.68405 574.472 1.06005L579.776 3.14005C579.013 4.52671 578.147 6.01738 577.176 7.61205C576.24 9.17205 575.339 10.5587 574.472 11.772C574.888 12.0494 575.269 12.3267 575.616 12.604C575.997 12.8814 576.344 13.1414 576.656 13.384C577.592 11.9627 578.441 10.6454 579.204 9.43205C580.001 8.18405 580.625 7.14405 581.076 6.31205L586.068 8.91205C585.375 10.1254 584.491 11.512 583.416 13.072C582.376 14.5974 581.249 16.1747 580.036 17.8041C578.857 19.3987 577.713 20.9067 576.604 22.328C577.505 22.2587 578.355 22.1894 579.152 22.12C579.984 22.016 580.747 21.9294 581.44 21.86C581.093 20.7854 580.712 19.8147 580.296 18.948L585.028 17.076C585.721 18.4627 586.432 20.1614 587.16 22.1721C589.829 20.6814 591.736 18.8787 592.88 16.764C594.024 14.6147 594.717 11.8587 594.96 8.49605H587.628V3.45205H612.432C612.432 5.18538 612.38 7.07471 612.276 9.12005C612.172 11.1654 612.033 13.1067 611.86 14.944C611.721 16.7467 611.531 18.22 611.288 19.364C610.837 21.652 609.971 23.212 608.688 24.044C607.405 24.8414 605.637 25.24 603.384 25.24H600.628C600.593 24.7201 600.507 24.1134 600.368 23.42C600.229 22.692 600.073 21.9987 599.9 21.34C599.761 20.6467 599.605 20.092 599.432 19.676H602.396C603.609 19.676 604.441 19.5027 604.892 19.156C605.343 18.7747 605.655 18.116 605.828 17.18C605.967 16.4867 606.088 15.6374 606.192 14.632C606.296 13.6267 606.383 12.5867 606.452 11.512C606.521 10.4027 606.556 9.39738 606.556 8.49605H600.524C600.316 12.6907 599.467 16.2267 597.976 19.104C596.485 21.9467 594.059 24.3734 590.696 26.3841C590.349 25.8987 589.847 25.292 589.188 24.564C588.564 23.8014 587.957 23.1947 587.368 22.744C587.68 23.576 587.957 24.3907 588.2 25.188C588.477 25.9854 588.685 26.696 588.824 27.32C588.096 27.4587 587.177 27.736 586.068 28.1521C584.993 28.5334 584.161 28.88 583.572 29.192C583.503 28.8107 583.399 28.3774 583.26 27.892C583.156 27.4067 583.035 26.904 582.896 26.3841C582.411 26.4534 581.873 26.54 581.284 26.644C580.729 26.748 580.14 26.8347 579.516 26.904V48.7961H573.848ZM589.5 48.0681V27.216H611.184V48.0681H589.5ZM595.064 42.9201H605.568V32.364H595.064V42.9201ZM569.636 43.648C568.977 43.3707 568.145 43.0934 567.14 42.8161C566.135 42.5041 565.303 42.2961 564.644 42.1921C565.164 41.2561 565.684 40.0947 566.204 38.708C566.724 37.2867 567.175 35.8134 567.556 34.288C567.972 32.7627 568.267 31.3761 568.44 30.128L573.328 31.116C573.155 32.364 572.86 33.7854 572.444 35.3801C572.063 36.9401 571.629 38.4654 571.144 39.9561C570.659 41.4121 570.156 42.6427 569.636 43.648ZM583.416 41.724C583.139 40.9614 582.792 39.9214 582.376 38.604C581.995 37.252 581.613 35.8654 581.232 34.444C580.851 32.988 580.556 31.7747 580.348 30.8041L585.08 29.556C585.288 30.3881 585.583 31.4627 585.964 32.78C586.38 34.0974 586.796 35.3974 587.212 36.68C587.663 37.9281 588.061 38.9334 588.408 39.696C587.645 39.8694 586.796 40.1641 585.86 40.5801C584.924 40.9614 584.109 41.3427 583.416 41.724Z" fill="#F27100"/>
<path d="M620.128 24.2001C619.885 23.68 619.521 23.108 619.036 22.484C618.585 21.8254 618.083 21.2014 617.528 20.612C616.973 19.988 616.453 19.5027 615.968 19.156C618.117 18.324 620.336 17.2147 622.624 15.828C624.947 14.4067 627.165 12.8294 629.28 11.096C631.395 9.36272 633.301 7.61205 635 5.84405C636.699 4.04138 638.016 2.36005 638.952 0.800049L644.776 1.63205C645.92 3.22671 647.341 4.85605 649.04 6.52005C650.739 8.14938 652.593 9.70938 654.604 11.2C656.649 12.6907 658.729 14.0427 660.844 15.256C662.993 16.4694 665.056 17.4401 667.032 18.168C666.512 18.584 665.957 19.1387 665.368 19.832C664.779 20.5254 664.224 21.236 663.704 21.964C663.219 22.692 662.855 23.316 662.612 23.8361C660.775 23.0387 658.868 22.0334 656.892 20.82C654.951 19.6067 653.027 18.272 651.12 16.816C649.248 15.3254 647.497 13.7827 645.868 12.188C644.273 10.5934 642.904 8.99871 641.76 7.40405C640.72 8.86005 639.333 10.4027 637.6 12.0321C635.901 13.6267 634.029 15.204 631.984 16.764C629.939 18.324 627.876 19.7627 625.796 21.08C623.751 22.3627 621.861 23.4027 620.128 24.2001ZM623.664 49.1081C623.317 48.3454 622.763 47.4267 622 46.3521C621.237 45.312 620.475 44.4627 619.712 43.8041C622.312 42.9374 624.409 41.8627 626.004 40.5801C627.633 39.2974 628.864 37.7201 629.696 35.848C630.528 33.9414 631.065 31.688 631.308 29.088C631.551 26.488 631.62 23.4547 631.516 19.988H637.912C638.12 25.5347 637.756 30.18 636.82 33.924C635.919 37.668 634.393 40.7534 632.244 43.18C630.095 45.572 627.235 47.548 623.664 49.1081ZM646.284 48.64V19.988H652.68V48.64H646.284Z" fill="#F27100"/>
</svg>
