<svg width="1440" height="36" viewBox="0 0 1440 36" fill="none" xmlns="http://www.w3.org/2000/svg">
<path d="M18.2278 18H36.4557V36H18.2278V18Z" fill="white"/>
<path d="M36.4557 2.02656e-06H54.6835V18H36.4557V2.02656e-06Z" fill="white"/>
<path d="M54.6835 18H72.9114V36H54.6835V18Z" fill="white"/>
<path d="M0 2.02656e-06H18.2278V18H0V2.02656e-06Z" fill="white"/>
<path d="M91.1392 18H109.367V36H91.1392V18Z" fill="white"/>
<path d="M109.367 2.02656e-06H127.595V18H109.367V2.02656e-06Z" fill="white"/>
<path d="M127.595 18H145.823V36H127.595V18Z" fill="white"/>
<path d="M72.9114 2.02656e-06H91.1392V18H72.9114V2.02656e-06Z" fill="white"/>
<path d="M164.051 18H182.278V36H164.051V18Z" fill="white"/>
<path d="M182.278 2.02656e-06H200.506V18H182.278V2.02656e-06Z" fill="white"/>
<path d="M200.506 18H218.734V36H200.506V18Z" fill="white"/>
<path d="M145.823 2.02656e-06H164.051V18H145.823V2.02656e-06Z" fill="white"/>
<path d="M236.962 18H255.19V36H236.962V18Z" fill="white"/>
<path d="M255.19 2.02656e-06H273.418V18H255.19V2.02656e-06Z" fill="white"/>
<path d="M273.418 18H291.646V36H273.418V18Z" fill="white"/>
<path d="M218.734 2.02656e-06H236.962V18H218.734V2.02656e-06Z" fill="white"/>
<path d="M309.873 18H328.101V36H309.873V18Z" fill="white"/>
<path d="M328.101 2.02656e-06H346.329V18H328.101V2.02656e-06Z" fill="white"/>
<path d="M346.329 18H364.557V36H346.329V18Z" fill="white"/>
<path d="M291.646 2.02656e-06H309.873V18H291.646V2.02656e-06Z" fill="white"/>
<path d="M382.785 18H401.013V36H382.785V18Z" fill="white"/>
<path d="M401.013 2.02656e-06H419.24V18H401.013V2.02656e-06Z" fill="white"/>
<path d="M419.24 18H437.468V36H419.24V18Z" fill="white"/>
<path d="M364.557 2.02656e-06H382.785V18H364.557V2.02656e-06Z" fill="white"/>
<path d="M601.519 18H619.747V36H601.519V18Z" fill="white"/>
<path d="M619.747 2.02656e-06H637.975V18H619.747V2.02656e-06Z" fill="white"/>
<path d="M637.975 18H656.203V36H637.975V18Z" fill="white"/>
<path d="M583.291 2.02656e-06H601.519V18H583.291V2.02656e-06Z" fill="white"/>
<path d="M674.43 18H692.658V36H674.43V18Z" fill="white"/>
<path d="M692.658 2.02656e-06H710.886V18H692.658V2.02656e-06Z" fill="white"/>
<path d="M710.886 18H729.114V36H710.886V18Z" fill="white"/>
<path d="M656.203 2.02656e-06H674.43V18H656.203V2.02656e-06Z" fill="white"/>
<path d="M455.696 18H473.924V36H455.696V18Z" fill="white"/>
<path d="M473.924 2.02656e-06H492.152V18H473.924V2.02656e-06Z" fill="white"/>
<path d="M492.152 18H510.38V36H492.152V18Z" fill="white"/>
<path d="M437.468 2.02656e-06H455.696V18H437.468V2.02656e-06Z" fill="white"/>
<path d="M528.608 18H546.835V36H528.608V18Z" fill="white"/>
<path d="M546.835 2.02656e-06H565.063V18H546.835V2.02656e-06Z" fill="white"/>
<path d="M565.063 18H583.291V36H565.063V18Z" fill="white"/>
<path d="M510.38 2.02656e-06H528.608V18H510.38V2.02656e-06Z" fill="white"/>
<path d="M729.114 2.02656e-06H747.342V18H729.114V2.02656e-06Z" fill="white"/>
<path d="M765.57 18H783.797V0H765.57V18Z" fill="white"/>
<path d="M783.797 36H802.025V18H783.797V36Z" fill="white"/>
<path d="M802.025 18H820.253V0H802.025V18Z" fill="white"/>
<path d="M747.342 36H765.57V18L747.342 18V36Z" fill="white"/>
<path d="M838.481 18H856.709V0H838.481V18Z" fill="white"/>
<path d="M856.709 36H874.937V18H856.709V36Z" fill="white"/>
<path d="M874.937 18H893.165V0H874.937V18Z" fill="white"/>
<path d="M820.253 36H838.481V18H820.253V36Z" fill="white"/>
<path d="M911.392 18H929.62V0H911.392V18Z" fill="white"/>
<path d="M929.62 36H947.848V18H929.62V36Z" fill="white"/>
<path d="M947.848 18H966.076V0H947.848V18Z" fill="white"/>
<path d="M893.165 36H911.392V18H893.165V36Z" fill="white"/>
<path d="M984.304 18H1002.53V0H984.304V18Z" fill="white"/>
<path d="M1002.53 36H1020.76V18H1002.53V36Z" fill="white"/>
<path d="M1020.76 18H1038.99V0H1020.76V18Z" fill="white"/>
<path d="M966.076 36H984.304V18H966.076V36Z" fill="white"/>
<path d="M1057.22 18H1075.44V0H1057.22V18Z" fill="white"/>
<path d="M1075.44 36H1093.67V18H1075.44V36Z" fill="white"/>
<path d="M1093.67 18H1111.9V0H1093.67V18Z" fill="white"/>
<path d="M1038.99 36H1057.22V18H1038.99V36Z" fill="white"/>
<path d="M1130.13 18H1148.35V0H1130.13V18Z" fill="white"/>
<path d="M1148.35 36H1166.58V18H1148.35V36Z" fill="white"/>
<path d="M1166.58 18H1184.81V0H1166.58V18Z" fill="white"/>
<path d="M1111.9 36H1130.13V18H1111.9V36Z" fill="white"/>
<path d="M1348.86 18H1367.09V0H1348.86V18Z" fill="white"/>
<path d="M1367.09 36H1385.32V18H1367.09V36Z" fill="white"/>
<path d="M1385.32 18H1403.54V0H1385.32V18Z" fill="white"/>
<path d="M1330.63 36H1348.86V18H1330.63V36Z" fill="white"/>
<path d="M1421.77 18H1440V0H1421.77V18Z" fill="white"/>
<path d="M1403.54 36H1421.77V18H1403.54V36Z" fill="white"/>
<path d="M1203.04 18H1221.27V0H1203.04V18Z" fill="white"/>
<path d="M1221.27 36H1239.49V18H1221.27V36Z" fill="white"/>
<path d="M1239.49 18H1257.72V0H1239.49V18Z" fill="white"/>
<path d="M1184.81 36H1203.04V18H1184.81V36Z" fill="white"/>
<path d="M1275.95 18H1294.18V0H1275.95V18Z" fill="white"/>
<path d="M1294.18 36H1312.41V18H1294.18V36Z" fill="white"/>
<path d="M1312.41 18H1330.63V0H1312.41V18Z" fill="white"/>
<path d="M1257.72 36H1275.95V18H1257.72V36Z" fill="white"/>
</svg>
