<svg width="35" height="63" viewBox="0 0 35 63" fill="none" xmlns="http://www.w3.org/2000/svg">
<path d="M2 3.24636C2 2.26192 3.27274 1.86986 3.82667 2.68367L17.5 22.7719V59L2.17333 36.4827C2.06039 36.3168 2 36.1207 2 35.92V3.24636Z" fill="white"/>
<path d="M33 3.24636C33 2.26192 31.7273 1.86986 31.1733 2.68367L17.5 22.7719V59L32.8267 36.4827C32.9396 36.3168 33 36.1207 33 35.92V3.24636Z" fill="#F27100"/>
<path d="M30.3467 2.12109C31.4545 0.493531 33.9998 1.27742 34 3.24609V35.9199C34 36.3212 33.879 36.7132 33.6533 37.0449L18.5 59.3076V62.2461L17.5 60.7773L16.5 62.2461V59.3076L1.34668 37.0449C1.12095 36.7132 1 36.3212 1 35.9199V3.24609C1.00023 1.27742 3.5455 0.493535 4.65332 2.12109L17.5 20.9932L30.3467 2.12109Z" stroke="white" stroke-width="2"/>
</svg>
